<svg width="24" height="24" viewBox="0 0 24 24" fill="none" xmlns="http://www.w3.org/2000/svg">
<path d="M15.1037 3.10285L15.8108 2.39574L15.8108 2.39574L15.1037 3.10285ZM18.4978 6.49696L17.7907 7.20407L17.7907 7.20407L18.4978 6.49696ZM9.69368 16.707C10.0842 17.0975 10.7174 17.0975 11.1079 16.707C11.4984 16.3165 11.4984 15.6833 11.1079 15.2928L9.69368 16.707ZM8.40078 13.9999L7.69368 13.2928C7.50614 13.4803 7.40078 13.7347 7.40078 13.9999C7.40078 14.2651 7.50614 14.5195 7.69368 14.707L8.40078 13.9999ZM11.1079 12.707C11.4984 12.3165 11.4984 11.6833 11.1079 11.2928C10.7174 10.9023 10.0842 10.9023 9.69368 11.2928L11.1079 12.707ZM14.3079 11.2928C13.9174 10.9023 13.2842 10.9023 12.8937 11.2928C12.5032 11.6833 12.5032 12.3165 12.8937 12.707L14.3079 11.2928ZM15.6008 13.9999L16.3079 14.707C16.4954 14.5195 16.6008 14.2651 16.6008 13.9999C16.6008 13.7347 16.4954 13.4803 16.3079 13.2928L15.6008 13.9999ZM12.8937 15.2928C12.5032 15.6833 12.5032 16.3165 12.8937 16.707C13.2842 17.0975 13.9174 17.0975 14.3079 16.707L12.8937 15.2928ZM16.8008 20.5999H7.20078V22.5999H16.8008V20.5999ZM5.80078 19.1999V4.7999H3.80078V19.1999H5.80078ZM7.20078 3.3999H13.4067V1.3999H7.20078V3.3999ZM18.2008 8.19401V19.1999H20.2008V8.19401H18.2008ZM13.4067 3.3999C13.778 3.3999 14.1341 3.5474 14.3966 3.80995L15.8108 2.39574C15.1732 1.75812 14.3084 1.3999 13.4067 1.3999V3.3999ZM7.20078 20.5999C6.42758 20.5999 5.80078 19.9731 5.80078 19.1999H3.80078C3.80078 21.0777 5.32301 22.5999 7.20078 22.5999V20.5999ZM16.8008 22.5999C18.6786 22.5999 20.2008 21.0777 20.2008 19.1999H18.2008C18.2008 19.9731 17.574 20.5999 16.8008 20.5999V22.5999ZM17.7907 7.20407C18.0533 7.46662 18.2008 7.82271 18.2008 8.19401H20.2008C20.2008 7.29228 19.8426 6.42748 19.2049 5.78985L17.7907 7.20407ZM5.80078 4.7999C5.80078 4.0267 6.42758 3.3999 7.20078 3.3999V1.3999C5.32301 1.3999 3.80078 2.92213 3.80078 4.7999H5.80078ZM12.2008 2.3999V7.1999H14.2008V2.3999H12.2008ZM14.4008 9.3999H19.2008V7.3999H14.4008V9.3999ZM12.2008 7.1999C12.2008 8.41493 13.1858 9.3999 14.4008 9.3999V7.3999C14.2903 7.3999 14.2008 7.31036 14.2008 7.1999H12.2008ZM14.3966 3.80995L17.7907 7.20407L19.2049 5.78985L15.8108 2.39574L14.3966 3.80995ZM11.1079 15.2928L9.10789 13.2928L7.69368 14.707L9.69368 16.707L11.1079 15.2928ZM9.10789 14.707L11.1079 12.707L9.69368 11.2928L7.69368 13.2928L9.10789 14.707ZM12.8937 12.707L14.8937 14.707L16.3079 13.2928L14.3079 11.2928L12.8937 12.707ZM14.8937 13.2928L12.8937 15.2928L14.3079 16.707L16.3079 14.707L14.8937 13.2928Z" fill="#07749B"/>
</svg>
