<svg width="24" height="24" viewBox="0 0 24 24" fill="none" xmlns="http://www.w3.org/2000/svg">
<path d="M12 16.7998L12 13.4057M12 13.4057L12 10.0116M12 13.4057L8.60587 13.4057M12 13.4057L15.3941 13.4057M2.40093 17.5408L2.40102 8.41649C2.40102 7.50257 2.40068 6.20083 2.40039 5.25829C2.40019 4.59537 2.93752 4.05859 3.60044 4.05859H9.31865L12.0837 7.01223H20.4C21.0627 7.01223 21.6 7.54951 21.6 8.21227L21.5997 17.5409C21.5996 18.8664 20.5251 19.9409 19.1997 19.9409L4.80092 19.9408C3.47543 19.9408 2.40091 18.8663 2.40093 17.5408Z" stroke="#BAC8CB" stroke-width="2" stroke-linecap="round" stroke-linejoin="round"/>
</svg>
