<svg width="24" height="24" viewBox="0 0 24 24" fill="none" xmlns="http://www.w3.org/2000/svg">
<path d="M6.24039 12.0004C6.24039 13.0608 5.38078 13.9204 4.32039 13.9204C3.26 13.9204 2.40039 13.0608 2.40039 12.0004C2.40039 10.94 3.26 10.0804 4.32039 10.0804C5.38078 10.0804 6.24039 10.94 6.24039 12.0004ZM6.24039 12.0004H17.7604M17.7604 12.0004C17.7604 13.0608 18.62 13.9204 19.6804 13.9204C20.7408 13.9204 21.6004 13.0608 21.6004 12.0004C21.6004 10.94 20.7408 10.0804 19.6804 10.0804C18.62 10.0804 17.7604 10.94 17.7604 12.0004ZM17.7604 4.32039C17.7604 5.38078 18.62 6.24039 19.6804 6.24039C20.7408 6.24039 21.6004 5.38078 21.6004 4.32039C21.6004 3.26 20.7408 2.40039 19.6804 2.40039C18.62 2.40039 17.7604 3.26 17.7604 4.32039ZM17.7604 4.32039H12.2404C11.7102 4.32039 11.2804 4.7502 11.2804 5.28039V18.7204C11.2804 19.2506 11.7102 19.6804 12.2404 19.6804H17.7604M17.7604 19.6804C17.7604 20.7408 18.62 21.6004 19.6804 21.6004C20.7408 21.6004 21.6004 20.7408 21.6004 19.6804C21.6004 18.62 20.7408 17.7604 19.6804 17.7604C18.62 17.7604 17.7604 18.62 17.7604 19.6804Z" stroke="#F2F2F2" stroke-width="2" stroke-linecap="round"/>
</svg>
