<svg width="22" height="22" viewBox="0 0 22 22" fill="none" xmlns="http://www.w3.org/2000/svg">
<path d="M13.75 2.2002V5.5002C13.75 6.10771 14.2424 6.60019 14.85 6.60019H18.15M16.5 3.8502C16.0104 3.41216 15.5024 2.89262 15.1816 2.5552C14.9682 2.33067 14.6734 2.2002 14.3636 2.2002H6.04969C4.83467 2.2002 3.8497 3.18516 3.84969 4.40018L3.84961 17.6001C3.8496 18.8152 4.83457 19.8001 6.0496 19.8001L15.9496 19.8002C17.1646 19.8002 18.1496 18.8152 18.1497 17.6002L18.1499 5.93821C18.1499 5.65694 18.0426 5.38656 17.8474 5.18407C17.4865 4.80962 16.8836 4.1935 16.5 3.8502Z" stroke="#F9FAFB" stroke-width="1.5" stroke-linecap="round" stroke-linejoin="round"/>
</svg>
