<svg width="24" height="24" viewBox="0 0 24 24" fill="none" xmlns="http://www.w3.org/2000/svg">
<g clip-path="url(#clip0_5133_14860)">
<path d="M16 6.07917C16 5.81667 15.8958 5.5625 15.7083 5.375L11.6292 1.29167C11.4417 1.10417 11.1875 1 10.9208 1H10.6667V6.33333H16V6.07917ZM23.7917 13.8333L19.8042 9.81667C19.3833 9.39583 18.6625 9.69167 18.6625 10.2875V13H15.9958V15.6667H18.6625V18.3833C18.6625 18.9792 19.3833 19.275 19.8042 18.8542L23.7917 14.8333C24.0667 14.5583 24.0667 14.1083 23.7917 13.8333ZM8 15V13.6667C8 13.3 8.3 13 8.66667 13H16V7.66667H10.3333C9.78333 7.66667 9.33333 7.21667 9.33333 6.66667V1H1C0.445833 1 0 1.44583 0 2V21.3333C0 21.8875 0.445833 22.3333 1 22.3333H15C15.5542 22.3333 16 21.8875 16 21.3333V15.6667H8.66667C8.3 15.6667 8 15.3667 8 15Z" fill="#3AB0DB"/>
</g>
<defs>
<clipPath id="clip0_5133_14860">
<rect width="23.9979" height="24" fill="white"/>
</clipPath>
</defs>
</svg>
