<svg width="24" height="25" viewBox="0 0 24 25" fill="none" xmlns="http://www.w3.org/2000/svg">
<path d="M15.0006 2.5V6.25C15.0006 6.94036 15.5378 7.5 16.2006 7.5H19.8006M8.40057 7.5H10.8006M8.40057 11.25H15.6006M8.40057 15H15.6006M18.0006 4.375C17.4665 3.87723 16.9123 3.28685 16.5624 2.90342C16.3296 2.64827 16.0079 2.5 15.67 2.5H6.60029C5.27481 2.5 4.2003 3.61928 4.20029 4.99999L4.2002 19.9999C4.20019 21.3806 5.2747 22.4999 6.60019 22.4999L17.4002 22.5C18.7257 22.5 19.8002 21.3807 19.8002 20.0001L19.8006 6.74774C19.8006 6.42812 19.6835 6.12087 19.4706 5.89076C19.0768 5.46526 18.4191 4.76512 18.0006 4.375Z" stroke="#F2F2F2" stroke-width="2" stroke-linecap="round" stroke-linejoin="round"/>
</svg>
