<svg width="24" height="24" viewBox="0 0 24 24" fill="none" xmlns="http://www.w3.org/2000/svg">
<g clip-path="url(#clip0_5133_14852)">
<path d="M23.5625 4.92188L17.4438 0.328125C17.1625 0.117188 16.7812 0 16.3813 0H16V6H24V5.71406C24 5.41875 23.8438 5.13281 23.5625 4.92188ZM14 6.375V0H1.5C0.66875 0 0 0.501562 0 1.125V22.875C0 23.4984 0.66875 24 1.5 24H22.5C23.3312 24 24 23.4984 24 22.875V7.5H15.5C14.675 7.5 14 6.99375 14 6.375ZM18 13.875V16.125C18 16.3312 17.775 16.5 17.5 16.5H14V19.125C14 19.3312 13.775 19.5 13.5 19.5H10.5C10.225 19.5 10 19.3312 10 19.125V16.5H6.5C6.225 16.5 6 16.3312 6 16.125V13.875C6 13.6687 6.225 13.5 6.5 13.5H10V10.875C10 10.6687 10.225 10.5 10.5 10.5H13.5C13.775 10.5 14 10.6687 14 10.875V13.5H17.5C17.775 13.5 18 13.6687 18 13.875Z" fill="#279F75"/>
</g>
<defs>
<clipPath id="clip0_5133_14852">
<rect width="24" height="24" fill="white"/>
</clipPath>
</defs>
</svg>
