<svg width="24" height="24" viewBox="0 0 24 24" fill="none" xmlns="http://www.w3.org/2000/svg">
<path d="M11.25 21.0469C11.625 21.0469 12.0078 21.0352 12.3984 21.0117C12.5938 21.5273 12.8359 22.0078 13.125 22.4531C12.8125 22.4844 12.5 22.5078 12.1875 22.5234C11.875 22.5391 11.5625 22.5469 11.25 22.5469C10.2031 22.5469 9.17969 22.4609 8.17969 22.2891C7.89062 22.2422 7.5625 22.1758 7.19531 22.0898C6.82812 22.0039 6.45312 21.8906 6.07031 21.75C5.6875 21.6094 5.3125 21.4492 4.94531 21.2695C4.57812 21.0898 4.25 20.875 3.96094 20.625C3.67188 20.375 3.44141 20.1055 3.26953 19.8164C3.09766 19.5273 3.00781 19.1875 3 18.7969V5.29688C3 4.94531 3.07422 4.63281 3.22266 4.35938C3.37109 4.08594 3.57031 3.82812 3.82031 3.58594C4.08594 3.32031 4.40234 3.08594 4.76953 2.88281C5.13672 2.67969 5.53906 2.50391 5.97656 2.35547C6.41406 2.20703 6.86328 2.07812 7.32422 1.96875C7.78516 1.85938 8.25 1.77734 8.71875 1.72266C9.1875 1.66797 9.63281 1.625 10.0547 1.59375C10.4766 1.5625 10.875 1.54688 11.25 1.54688C11.8125 1.54688 12.4336 1.57812 13.1133 1.64062C13.793 1.70312 14.4766 1.80859 15.1641 1.95703C15.8516 2.10547 16.5039 2.31641 17.1211 2.58984C17.7383 2.86328 18.2578 3.19531 18.6797 3.58594C18.9219 3.8125 19.1172 4.07031 19.2656 4.35938C19.4141 4.64844 19.4922 4.96094 19.5 5.29688V12H18V7.52344C17.5312 7.8125 17.0195 8.05469 16.4648 8.25C15.9102 8.44531 15.3359 8.60156 14.7422 8.71875C14.1484 8.83594 13.5547 8.91797 12.9609 8.96484C12.3672 9.01172 11.7969 9.03906 11.25 9.04688C10.7109 9.04688 10.1445 9.02344 9.55078 8.97656C8.95703 8.92969 8.35938 8.84375 7.75781 8.71875C7.15625 8.59375 6.58203 8.4375 6.03516 8.25C5.48828 8.0625 4.97656 7.82031 4.5 7.52344V18.7969C4.5 18.9531 4.55469 19.0977 4.66406 19.2305C4.77344 19.3633 4.88672 19.4727 5.00391 19.5586C5.37109 19.8477 5.81641 20.0859 6.33984 20.2734C6.86328 20.4609 7.41797 20.6133 8.00391 20.7305C8.58984 20.8477 9.16406 20.9297 9.72656 20.9766C10.2891 21.0234 10.7969 21.0469 11.25 21.0469ZM11.25 3.04688C10.8516 3.04688 10.4375 3.05859 10.0078 3.08203C9.57812 3.10547 9.14062 3.15234 8.69531 3.22266C8.25 3.29297 7.82031 3.37891 7.40625 3.48047C6.99219 3.58203 6.59766 3.71094 6.22266 3.86719C6.10547 3.91406 5.94922 3.98438 5.75391 4.07812C5.55859 4.17188 5.36719 4.28516 5.17969 4.41797C4.99219 4.55078 4.83203 4.6875 4.69922 4.82812C4.56641 4.96875 4.5 5.125 4.5 5.29688C4.5 5.35938 4.51172 5.41797 4.53516 5.47266C4.55859 5.52734 4.58984 5.58203 4.62891 5.63672C4.80078 5.88672 5.04688 6.10938 5.36719 6.30469C5.6875 6.5 6.04688 6.66797 6.44531 6.80859C6.84375 6.94922 7.26562 7.06641 7.71094 7.16016C8.15625 7.25391 8.59766 7.32812 9.03516 7.38281C9.47266 7.4375 9.87891 7.48047 10.2539 7.51172C10.6289 7.54297 10.9609 7.55469 11.25 7.54688C11.5234 7.54688 11.8516 7.53516 12.2344 7.51172C12.6172 7.48828 13.0273 7.44922 13.4648 7.39453C13.9023 7.33984 14.3398 7.26172 14.7773 7.16016C15.2148 7.05859 15.6406 6.94141 16.0547 6.80859C16.4688 6.67578 16.8242 6.51172 17.1211 6.31641C17.418 6.12109 17.668 5.89453 17.8711 5.63672C17.9102 5.58203 17.9414 5.52734 17.9648 5.47266C17.9883 5.41797 18 5.35938 18 5.29688C18 5.13281 17.9336 4.97656 17.8008 4.82812C17.668 4.67969 17.5078 4.54297 17.3203 4.41797C17.1328 4.29297 16.9414 4.18359 16.7461 4.08984C16.5508 3.99609 16.3945 3.92188 16.2773 3.86719C15.9102 3.71875 15.5156 3.59375 15.0938 3.49219C14.6719 3.39062 14.2422 3.30469 13.8047 3.23438C13.3672 3.16406 12.9336 3.11719 12.5039 3.09375C12.0742 3.07031 11.6562 3.05469 11.25 3.04688ZM22.4297 18.0352C22.4766 18.2695 22.5 18.5078 22.5 18.75C22.5 18.9922 22.4766 19.2305 22.4297 19.4648L23.8828 20.0625L23.3086 21.457L21.8555 20.8477C21.582 21.2461 21.2461 21.582 20.8477 21.8555L21.457 23.3086L20.0625 23.8828L19.4648 22.4297C19.2305 22.4766 18.9922 22.5 18.75 22.5C18.5078 22.5 18.2695 22.4766 18.0352 22.4297L17.4375 23.8828L16.043 23.3086L16.6523 21.8555C16.2539 21.582 15.918 21.2461 15.6445 20.8477L14.1914 21.457L13.6172 20.0625L15.0703 19.4648C15.0234 19.2305 15 18.9922 15 18.75C15 18.5078 15.0234 18.2695 15.0703 18.0352L13.6172 17.4375L14.1914 16.043L15.6445 16.6523C15.918 16.2539 16.2539 15.918 16.6523 15.6445L16.043 14.1914L17.4375 13.6172L18.0352 15.0703C18.2695 15.0234 18.5078 15 18.75 15C18.9922 15 19.2305 15.0234 19.4648 15.0703L20.0625 13.6172L21.457 14.1914L20.8477 15.6445C21.2461 15.918 21.582 16.2539 21.8555 16.6523L23.3086 16.043L23.8828 17.4375L22.4297 18.0352ZM18.75 21C19.0625 21 19.3555 20.9414 19.6289 20.8242C19.9023 20.707 20.1406 20.5469 20.3438 20.3438C20.5469 20.1406 20.707 19.9023 20.8242 19.6289C20.9414 19.3555 21 19.0625 21 18.75C21 18.4375 20.9414 18.1445 20.8242 17.8711C20.707 17.5977 20.5469 17.3594 20.3438 17.1562C20.1406 16.9531 19.9023 16.793 19.6289 16.6758C19.3555 16.5586 19.0625 16.5 18.75 16.5C18.4375 16.5 18.1445 16.5586 17.8711 16.6758C17.5977 16.793 17.3594 16.9531 17.1562 17.1562C16.9531 17.3594 16.793 17.5977 16.6758 17.8711C16.5586 18.1445 16.5 18.4375 16.5 18.75C16.5 19.0625 16.5586 19.3555 16.6758 19.6289C16.793 19.9023 16.9531 20.1406 17.1562 20.3438C17.3594 20.5469 17.5977 20.707 17.8711 20.8242C18.1445 20.9414 18.4375 21 18.75 21Z" fill="#F2F2F2"/>
</svg>
