<svg width="24" height="24" viewBox="0 0 24 24" fill="none" xmlns="http://www.w3.org/2000/svg">
<path d="M12 16.8001L12 13.406M12 13.406L12 10.0119M12 13.406L8.60587 13.406M12 13.406L15.3941 13.406M2.40093 17.541L2.40102 8.41673C2.40102 7.50281 2.40068 6.20108 2.40039 5.25853C2.40019 4.59561 2.93752 4.05884 3.60044 4.05884H9.31865L12.0837 7.01247H20.4C21.0627 7.01247 21.6 7.54976 21.6 8.21251L21.5997 17.5412C21.5996 18.8666 20.5251 19.9411 19.1997 19.9411L4.80092 19.9411C3.47543 19.9411 2.40091 18.8665 2.40093 17.541Z" stroke="#BAC8CB" stroke-width="2" stroke-linecap="round" stroke-linejoin="round"/>
</svg>
