<svg width="24" height="24" viewBox="0 0 24 24" fill="none" xmlns="http://www.w3.org/2000/svg">
<path d="M23.8622 13.5039L20.8446 18.677C20.6098 19.0796 20.2735 19.4136 19.8694 19.6457C19.4652 19.8779 19.0073 20 18.5412 20H1.87604C1.10425 20 0.623375 19.1628 1.01225 18.4961L4.02992 13.323C4.26476 12.9204 4.60102 12.5864 5.00517 12.3543C5.40932 12.1221 5.86726 12 6.33333 12H22.9985C23.7703 12 24.2512 12.8372 23.8622 13.5039ZM6.33333 10.6667H20V8.66667C20 7.56208 19.1046 6.66667 18 6.66667H11.3333L8.66667 4H2C0.895417 4 0 4.89542 0 6V17.5852L2.87821 12.6512C3.59225 11.4271 4.91621 10.6667 6.33333 10.6667Z" fill="#3AB0DB"/>
</svg>
