<svg width="24" height="24" viewBox="0 0 24 24" fill="none" xmlns="http://www.w3.org/2000/svg">
<path d="M16.518 10.5H20.5337C21.1228 10.5 21.6004 10.9776 21.6004 11.5667V17.7981V18.1C21.6004 19.2046 20.705 20.1 19.6004 20.1H4.80039M2.40039 4.96669V18C2.40039 19.1598 3.34059 20.1 4.50039 20.1V20.1C5.66019 20.1 6.60039 19.1598 6.60039 18V11.5667C6.60039 10.9776 7.07795 10.5 7.66706 10.5H19.4671V7.97846C19.4671 7.38935 18.9895 6.91179 18.4004 6.91179H11.3729L9.74299 4.388C9.54651 4.08378 9.2091 3.90002 8.84695 3.90002H3.46706C2.87795 3.90002 2.40039 4.37759 2.40039 4.96669Z" stroke="#BAC8CB" stroke-width="2" stroke-linecap="round" stroke-linejoin="round"/>
</svg>
