<svg width="18" height="22" viewBox="0 0 18 22" fill="none" xmlns="http://www.w3.org/2000/svg">
<path d="M11.8004 1V4.6C11.8004 5.26274 12.3376 5.8 13.0004 5.8H16.6004M5.20037 5.8H7.60038M5.20037 9.4H12.4004M5.20037 13H12.4004M14.8004 2.8C14.2663 2.32214 13.7121 1.75538 13.3622 1.38728C13.1294 1.14233 12.8077 1 12.4698 1H3.40009C2.07462 1 1.0001 2.07451 1.00009 3.39999L1 17.7999C0.999991 19.1254 2.0745 20.1999 3.39999 20.1999L14.2 20.2C15.5255 20.2 16.6 19.1255 16.6 17.8L16.6004 5.07783C16.6004 4.77099 16.4833 4.47603 16.2704 4.25513C15.8766 3.84665 15.219 3.17452 14.8004 2.8Z" stroke="#B2D4E0" stroke-width="2" stroke-linecap="round" stroke-linejoin="round"/>
</svg>
