<svg width="25" height="24" viewBox="0 0 25 24" fill="none" xmlns="http://www.w3.org/2000/svg">
<path d="M22.1023 6.6C22.1023 8.58823 17.8043 10.2 12.5023 10.2C7.20041 10.2 2.90234 8.58823 2.90234 6.6M22.1023 6.6C22.1023 4.61177 17.8043 3 12.5023 3C7.20041 3 2.90234 4.61177 2.90234 6.6M22.1023 6.6V17.4C22.1023 19.3882 17.8043 21 12.5023 21C7.20041 21 2.90234 19.3882 2.90234 17.4V6.6M22.1023 12C22.1023 13.9882 17.8043 15.6 12.5023 15.6C7.20041 15.6 2.90234 13.9882 2.90234 12" stroke="#BAC8CB" stroke-width="2"/>
</svg>
